{
  "accessors": [
    {
      "bufferView": 2,
      "componentType": 5126,
      "count": 6322,
      "max": [
        0.2616179883480072,
        0.2896899878978729,
        0.49519699811935425
      ],
      "min": [
        -0.26367801427841187,
        -0.28971898555755615,
        -0.4999130070209503
      ],
      "type": "VEC3"
    },
    {
      "bufferView": 2,
      "byteOffset": 75864,
      "componentType": 5126,
      "count": 6322,
      "max": [
        0.9999994039535522,
        0.9999998807907104,
        0.9999792575836182
      ],
      "min": [
        -1.0,
        -0.9999996423721313,
        -1.0
      ],
      "type": "VEC3"
    },
    {
      "bufferView": 3,
      "componentType": 5126,
      "count": 6322,
      "max": [
        0.9999942183494568,
        1.0,
        0.9999642372131348,
        1.0
      ],
      "min": [
        -0.999993622303009,
        -0.9999999403953552,
        -0.9999732375144958,
        -1.0
      ],
      "type": "VEC4"
    },
    {
      "bufferView": 1,
      "componentType": 5126,
      "count": 6322,
      "max": [
        0.9989529848098755,
        0.9989979863166809
      ],
      "min": [
        0.0010019999463111162,
        0.0010019999463111162
      ],
      "type": "VEC2"
    },
    {
      "bufferView": 0,
      "componentType": 5125,
      "count": 22800,
      "type": "SCALAR"
    }
  ],
  "asset": {
    "extras": {
      "author": "dragunakaneTGTF (https://sketchfab.com/dragunakaneTGTF)",
      "license": "CC-BY-4.0 (http://creativecommons.org/licenses/by/4.0/)",
      "source": "https://sketchfab.com/3d-models/skull-throne-d141df7a3c9c409e938c87c51487980d",
      "title": "skull throne"
    },
    "generator": "Sketchfab-16.68.0",
    "version": "2.0"
  },
  "bufferViews": [
    {
      "buffer": 0,
      "byteLength": 91200,
      "name": "floatBufferViews",
      "target": 34963
    },
    {
      "buffer": 0,
      "byteLength": 50576,
      "byteOffset": 91200,
      "byteStride": 8,
      "name": "floatBufferViews",
      "target": 34962
    },
    {
      "buffer": 0,
      "byteLength": 151728,
      "byteOffset": 141776,
      "byteStride": 12,
      "name": "floatBufferViews",
      "target": 34962
    },
    {
      "buffer": 0,
      "byteLength": 101152,
      "byteOffset": 293504,
      "byteStride": 16,
      "name": "floatBufferViews",
      "target": 34962
    }
  ],
  "buffers": [
    {
      "byteLength": 394656,
      "uri": "scene.bin"
    }
  ],
  "images": [
    {
      "uri": "textures/tripo_mat_f9919f40-7168-455f-8556-fe076c7f3961_baseColor.jpeg"
    },
    {
      "uri": "textures/tripo_mat_f9919f40-7168-455f-8556-fe076c7f3961_metallicRoughness.png"
    },
    {
      "uri": "textures/tripo_mat_f9919f40-7168-455f-8556-fe076c7f3961_normal.png"
    }
  ],
  "materials": [
    {
      "doubleSided": true,
      "name": "tripo_mat_f9919f40-7168-455f-8556-fe076c7f3961",
      "normalTexture": {
        "index": 2
      },
      "pbrMetallicRoughness": {
        "baseColorTexture": {
          "index": 0
        },
        "metallicRoughnessTexture": {
          "index": 1
        },
        "roughnessFactor": 0.6
      }
    }
  ],
  "meshes": [
    {
      "name": "Object_0",
      "primitives": [
        {
          "attributes": {
            "NORMAL": 1,
            "POSITION": 0,
            "TANGENT": 2,
            "TEXCOORD_0": 3
          },
          "indices": 4,
          "material": 0,
          "mode": 4
        }
      ]
    }
  ],
  "nodes": [
    {
      "children": [
        1
      ],
      "matrix": [
        1.0,
        0.0,
        0.0,
        0.0,
        0.0,
        2.220446049250313e-16,
        -1.0,
        0.0,
        0.0,
        1.0,
        2.220446049250313e-16,
        0.0,
        0.0,
        0.0,
        0.0,
        1.0
      ],
      "name": "Sketchfab_model"
    },
    {
      "children": [
        2
      ],
      "name": "tripo_convert_f9919f40-7168-455f-8556-fe076c7f3961.obj.cleaner.materialmerger.gles"
    },
    {
      "mesh": 0,
      "name": "Object_2"
    }
  ],
  "samplers": [
    {
      "magFilter": 9729,
      "minFilter": 9987,
      "wrapS": 10497,
      "wrapT": 10497
    }
  ],
  "scene": 0,
  "scenes": [
    {
      "name": "Sketchfab_Scene",
      "nodes": [
        0
      ]
    }
  ],
  "textures": [
    {
      "sampler": 0,
      "source": 0
    },
    {
      "sampler": 0,
      "source": 1
    },
    {
      "sampler": 0,
      "source": 2
    }
  ]
}
